# xmcd
#
# Track frame offsets:
#	150
#	21716
#	36667
#	54608
#	69128
#	86708
#	102244
#	120426
#	140378
#	159101
#	175777
#
# Disc length: 2627 seconds
#
# Revision: 1
# Processed by: cddbd v1.4PL0 Copyright (c) Steve Scherf et al.
# Submitted via: audiograbber 1.81.02
#
DISCID=8f0a410b
DTITLE=The Nace Brothers - Trouble On The Hill
DYEAR=2001
DGENRE=
TTITLE0=Miss Arzetta
TTITLE1=Treat Me Nice
TTITLE2=Goin' Down Slow
TTITLE3=No Right Thing
TTITLE4=Be That Strong
TTITLE5=It's Alright
TTITLE6=Suicide Dawg
TTITLE7=Sista Please
TTITLE8=Quitcher Bitchin'
TTITLE9=The Ballad Of Lizzie Heard
TTITLE10=Watch The Sun Rise
EXTD=
EXTT0=
EXTT1=
EXTT2=
EXTT3=
EXTT4=
EXTT5=
EXTT6=
EXTT7=
EXTT8=
EXTT9=
EXTT10=
PLAYORDER=
